<svg width="59" height="59" viewBox="0 0 59 59" fill="none" xmlns="http://www.w3.org/2000/svg">
<path d="M27.8805 1.2348C28.679 0.132902 30.321 0.132903 31.1195 1.2348L33.1727 4.06811C33.7862 4.91478 34.9484 5.14595 35.8393 4.59852L38.8204 2.76661C39.9798 2.05417 41.4968 2.68251 41.8128 4.00611L42.6255 7.40947C42.8683 8.42648 43.8536 9.0848 44.8861 8.91996L48.3414 8.36834C49.6852 8.15381 50.8462 9.31484 50.6317 10.6586L50.08 14.1139C49.9152 15.1464 50.5735 16.1317 51.5905 16.3745L54.9939 17.1872C56.3175 17.5032 56.9458 19.0202 56.2334 20.1796L54.4015 23.1607C53.8541 24.0516 54.0852 25.2138 54.9319 25.8273L57.7652 27.8805C58.8671 28.679 58.8671 30.321 57.7652 31.1195L54.9319 33.1727C54.0852 33.7862 53.8541 34.9484 54.4015 35.8393L56.2334 38.8204C56.9458 39.9798 56.3175 41.4968 54.9939 41.8128L51.5905 42.6255C50.5735 42.8683 49.9152 43.8536 50.08 44.8861L50.6317 48.3414C50.8462 49.6852 49.6852 50.8462 48.3414 50.6317L44.8861 50.08C43.8536 49.9152 42.8683 50.5735 42.6255 51.5905L41.8128 54.9939C41.4968 56.3175 39.9798 56.9458 38.8204 56.2334L35.8393 54.4015C34.9484 53.8541 33.7862 54.0852 33.1727 54.9319L31.1195 57.7652C30.321 58.8671 28.679 58.8671 27.8805 57.7652L25.8273 54.9319C25.2138 54.0852 24.0516 53.8541 23.1607 54.4015L20.1796 56.2334C19.0202 56.9458 17.5032 56.3175 17.1872 54.9939L16.3745 51.5905C16.1317 50.5735 15.1464 49.9152 14.1139 50.08L10.6586 50.6317C9.31484 50.8462 8.15381 49.6852 8.36834 48.3414L8.91996 44.8861C9.0848 43.8536 8.42648 42.8683 7.40947 42.6255L4.0061 41.8128C2.68251 41.4968 2.05417 39.9798 2.76661 38.8204L4.59852 35.8393C5.14595 34.9484 4.91478 33.7862 4.06811 33.1727L1.2348 31.1195C0.132902 30.321 0.132903 28.679 1.2348 27.8805L4.06811 25.8273C4.91478 25.2138 5.14595 24.0516 4.59852 23.1607L2.76661 20.1796C2.05417 19.0202 2.68251 17.5032 4.00611 17.1872L7.40947 16.3745C8.42648 16.1317 9.0848 15.1464 8.91996 14.1139L8.36834 10.6586C8.15381 9.31484 9.31484 8.15381 10.6586 8.36834L14.1139 8.91996C15.1464 9.0848 16.1317 8.42648 16.3745 7.40947L17.1872 4.00611C17.5032 2.68251 19.0202 2.05417 20.1796 2.76661L23.1607 4.59852C24.0516 5.14595 25.2138 4.91478 25.8273 4.06811L27.8805 1.2348Z" fill="#1A1A1A"/>
</svg>
