<svg width="82" height="18" viewBox="0 0 82 18" fill="none" xmlns="http://www.w3.org/2000/svg">
<path d="M6.408 0.959999H9.768L16.032 18H12.624L11.04 13.752H5.088L3.528 18H0.12L6.408 0.959999ZM10.44 11.424L8.088 4.392L5.64 11.424H10.44ZM17.901 18V0.959999H21.213V18H17.901ZM24.3842 18V14.544H27.0242V18H24.3842Z" fill="white"/>
<path d="M6.408 0.959999H9.768L16.032 18H12.624L11.04 13.752H5.088L3.528 18H0.12L6.408 0.959999ZM10.44 11.424L8.088 4.392L5.64 11.424H10.44ZM17.901 18V0.959999H21.213V18H17.901ZM24.3842 18V14.544H27.0242V18H24.3842Z" fill="url(#paint0_linear_1115_2403)"/>
<path d="M44.0548 18V6.816L39.6868 15.144H37.8388L33.4708 6.816V18H30.1588V0.959999H33.7108L38.7508 10.656L43.8388 0.959999H47.3668V18H44.0548ZM55.5564 0.959999H58.9164L65.1804 18H61.7724L60.1884 13.752H54.2364L52.6764 18H49.2684L55.5564 0.959999ZM59.5884 11.424L57.2364 4.392L54.7884 11.424H59.5884ZM70.3614 7.056V18H67.0494V0.959999H69.6894L78.4974 12.192V0.983999H81.8094V18H79.0494L70.3614 7.056Z" fill="white" fill-opacity="0.5"/>
<defs>
<linearGradient id="paint0_linear_1115_2403" x1="87" y1="21.4" x2="64.4655" y2="-30.88" gradientUnits="userSpaceOnUse">
<stop stop-color="#A7F306"/>
<stop offset="1" stop-color="#F3CD06"/>
</linearGradient>
</defs>
</svg>
